<svg width="218" height="40" viewBox="0 0 218 40" fill="none" xmlns="http://www.w3.org/2000/svg">
<path d="M44.4687 11.3743C36.5751 11.3743 30.4074 17.3666 30.4074 25.3883C30.4074 33.4101 36.4193 39.351 44.4687 39.351C52.5181 39.351 58.6346 33.3076 58.6346 25.3371C58.6346 17.4178 52.6227 11.3743 44.4687 11.3743ZM44.522 33.5699C40.0268 33.5699 36.7329 30.0788 36.7329 25.3903C36.7329 20.6486 39.9736 17.1594 44.4687 17.1594C49.0171 17.1594 52.3091 20.7019 52.3091 25.3903C52.3091 30.0788 49.0171 33.5699 44.522 33.5699ZM60.3585 17.471H64.2794V38.8323H70.5517V11.8951H60.3585V17.471ZM14.6221 17.1574C17.9161 17.1574 20.5295 19.189 21.5216 22.2107H28.1608C26.9576 15.7511 21.6262 11.3743 14.6754 11.3743C6.78176 11.3743 0.614037 17.3665 0.614037 25.3903C0.614037 33.4141 6.62596 39.353 14.6754 39.353C21.4703 39.353 26.9063 34.9763 28.1095 28.4633H21.5216C20.5808 31.4851 17.9673 33.5699 14.6734 33.5699C10.125 33.5699 6.93757 30.0788 6.93757 25.3903C6.93957 20.6486 10.0757 17.1574 14.6221 17.1574ZM179.536 22.7847L174.936 22.1082C172.741 21.7966 171.173 21.0668 171.173 19.3469C171.173 17.471 173.212 16.5341 175.981 16.5341C179.013 16.5341 180.948 17.836 181.366 19.9721H187.43C186.749 14.5538 182.567 11.3763 176.139 11.3763C169.5 11.3763 165.11 14.763 165.11 19.5559C165.11 24.1398 167.985 26.7986 173.786 27.631L178.386 28.3075C180.634 28.6191 181.889 29.5067 181.889 31.1734C181.889 33.3096 179.694 34.1952 176.662 34.1952C172.95 34.1952 170.859 32.6843 170.546 30.3924H164.378C164.954 35.6547 169.082 39.353 176.609 39.353C183.457 39.353 188.003 36.2268 188.003 30.8598C188.003 26.0668 184.711 23.5658 179.536 22.7847ZM67.4155 0.798231C65.1157 0.798231 63.3903 2.46492 63.3903 4.75687C63.3903 7.04881 65.1139 8.7155 67.4155 8.7155C69.7153 8.7155 71.4414 7.04881 71.4414 4.75687C71.4414 2.46492 69.7153 0.798231 67.4155 0.798231ZM159.464 21.118C159.464 15.2836 155.91 11.3763 148.383 11.3763C141.275 11.3763 137.302 14.972 136.517 20.4947H142.738C143.052 18.3586 144.724 16.5874 148.279 16.5874C151.469 16.5874 153.036 17.9937 153.036 19.7137C153.036 21.9544 150.16 22.5264 146.606 22.8913C141.797 23.412 135.839 25.0786 135.839 31.3312C135.839 36.1775 139.446 39.3017 145.196 39.3017C149.691 39.3017 152.513 37.426 153.926 34.4555C154.135 37.1124 156.121 38.8323 158.893 38.8323H162.551V33.2583H159.466V21.118H159.464ZM153.296 27.8913C153.296 31.487 150.16 34.1439 146.344 34.1439C143.991 34.1439 142.005 33.1537 142.005 31.0709C142.005 28.414 145.194 27.6842 148.121 27.3726C150.944 27.1122 152.512 26.487 153.296 25.2878V27.8913ZM120 11.3743C116.497 11.3743 113.57 12.8339 111.48 15.2817V0.537872H105.208V38.8323H111.375V35.2899C113.465 37.8422 116.446 39.353 120 39.353C127.527 39.353 133.225 33.4141 133.225 25.3903C133.225 17.3665 127.423 11.3743 120 11.3743ZM119.06 33.5699C114.564 33.5699 111.271 30.0788 111.271 25.3903C111.271 20.7019 114.616 17.1594 119.111 17.1594C123.659 17.1594 126.846 20.6506 126.846 25.3903C126.846 30.0788 123.554 33.5699 119.06 33.5699ZM90.2049 11.3743C86.1281 11.3743 83.4613 13.041 81.8936 15.3862V11.8951H75.6722V38.8304H81.9445V24.1911C81.9445 20.0746 84.5579 17.1574 88.426 17.1574C92.0334 17.1574 94.2798 19.7098 94.2798 23.41V38.8323H100.552V22.9425C100.555 16.1673 97.0533 11.3743 90.2049 11.3743ZM217.903 24.5047C217.903 16.7945 212.258 11.3763 204.678 11.3763C196.629 11.3763 190.722 17.4198 190.722 25.3903C190.722 33.779 197.047 39.353 204.783 39.353C211.317 39.353 216.44 35.497 217.745 30.0274H211.21C210.27 32.4239 207.97 33.779 204.885 33.779C200.86 33.779 197.828 31.278 197.149 26.9012H217.901V24.5047H217.903ZM197.516 22.4199C198.511 18.6683 201.333 16.8458 204.574 16.8458C208.128 16.8458 210.846 18.8774 211.473 22.4199H197.516Z" fill="#868686"/>
</svg>
