<svg width="219" height="56" viewBox="0 0 219 56" fill="none" xmlns="http://www.w3.org/2000/svg">
<path fill-rule="evenodd" clip-rule="evenodd" d="M29.0227 0.0862179C13.448 0.0862179 0.833218 12.701 0.833218 28.2757C0.833218 40.7496 8.90246 51.2854 20.1078 55.0205C21.5173 55.2672 22.0458 54.4215 22.0458 53.6815C22.0458 53.012 22.0106 50.7921 22.0106 48.4312C14.928 49.735 13.0957 46.7046 12.5319 45.119C12.2147 44.3085 10.8405 41.8067 9.64244 41.1372C8.6558 40.6086 7.24633 39.3049 9.6072 39.2696C11.8271 39.2344 13.4128 41.3134 13.9413 42.1591C16.4784 46.4227 20.5306 45.2247 22.1515 44.4847C22.3982 42.6524 23.1382 41.4191 23.9486 40.7143C17.6764 40.0096 11.1224 37.5783 11.1224 26.7958C11.1224 23.7302 12.2147 21.1931 14.0118 19.2198C13.7299 18.5151 12.7433 15.6257 14.2937 11.7496C14.2937 11.7496 16.6546 11.0097 22.0458 14.6391C24.301 14.0048 26.6971 13.6877 29.0932 13.6877C31.4893 13.6877 33.8854 14.0048 36.1406 14.6391C41.5318 10.9744 43.8927 11.7496 43.8927 11.7496C45.4431 15.6257 44.4565 18.5151 44.1746 19.2198C45.9717 21.1931 47.064 23.6949 47.064 26.7958C47.064 37.6135 40.4747 40.0096 34.2025 40.7143C35.2244 41.5953 36.1053 43.2866 36.1053 45.9294C36.1053 49.6998 36.0701 52.7301 36.0701 53.6815C36.0701 54.4215 36.5986 55.3024 38.0081 55.0205C43.6043 53.1313 48.467 49.5348 51.912 44.7371C55.357 39.9394 57.2107 34.1821 57.2122 28.2757C57.2122 12.701 44.5974 0.0862179 29.0227 0.0862179Z" fill="#868686"/>
<path d="M132.248 41.8821H132.182C132.212 41.8821 132.232 41.915 132.261 41.9183H132.281L132.248 41.8854V41.8821ZM132.261 41.9183C131.955 41.9216 131.186 42.0827 130.373 42.0827C127.808 42.0827 126.92 40.8987 126.92 39.353V29.0559H132.149C132.445 29.0559 132.676 28.7928 132.676 28.431V22.8401C132.676 22.5441 132.412 22.281 132.149 22.281H126.92V15.3417C126.92 15.0786 126.756 14.9141 126.46 14.9141H119.356C119.06 14.9141 118.896 15.0786 118.896 15.3417V22.4783C118.896 22.4783 115.311 23.3663 115.081 23.3992C114.817 23.4649 114.653 23.6952 114.653 23.9583V28.431C114.653 28.7928 114.916 29.0559 115.212 29.0559H118.863V39.8431C118.863 47.8677 124.454 48.6899 128.269 48.6899C130.012 48.6899 132.116 48.1308 132.445 47.9663C132.643 47.9005 132.741 47.6703 132.741 47.4401V42.507C132.746 42.367 132.7 42.2302 132.612 42.1214C132.523 42.0127 132.399 41.9394 132.261 41.915V41.9183ZM210.192 34.6797C210.192 28.727 207.791 27.9377 205.259 28.2008C203.286 28.3323 201.707 29.319 201.707 29.319V40.8955C201.707 40.8955 203.318 42.0136 205.719 42.0794C209.107 42.1781 210.192 40.9612 210.192 34.6797ZM218.184 34.1535C218.184 45.434 214.533 48.657 208.153 48.657C202.759 48.657 199.865 45.9273 199.865 45.9273C199.865 45.9273 199.734 47.4401 199.569 47.6374C199.471 47.8348 199.306 47.9005 199.109 47.9005H194.241C193.913 47.9005 193.617 47.6374 193.617 47.3415L193.682 10.8032C193.682 10.5072 193.945 10.2441 194.241 10.2441H201.246C201.542 10.2441 201.806 10.5072 201.806 10.8032V23.2018C201.806 23.2018 204.502 21.4588 208.449 21.4588L208.416 21.393C212.363 21.393 218.184 22.873 218.184 34.1535ZM189.506 22.281H182.599C182.237 22.281 182.04 22.5441 182.04 22.9059V40.7968C182.04 40.7968 180.231 42.0794 177.765 42.0794C175.298 42.0794 174.575 40.9612 174.575 38.4946V22.873C174.575 22.577 174.311 22.3139 174.015 22.3139H166.977C166.681 22.3139 166.418 22.577 166.418 22.873V39.6786C166.418 46.9139 170.464 48.7227 176.022 48.7227C180.593 48.7227 184.309 46.1904 184.309 46.1904C184.309 46.1904 184.474 47.473 184.572 47.6703C184.638 47.8348 184.868 47.9663 185.099 47.9663H189.506C189.867 47.9663 190.065 47.7032 190.065 47.4072L190.13 22.8401C190.13 22.5441 189.867 22.281 189.506 22.281ZM111.562 22.2481H104.556C104.261 22.2481 103.997 22.5441 103.997 22.9059V47.0455C103.997 47.7032 104.425 47.9334 104.984 47.9334H111.298C111.956 47.9334 112.121 47.6374 112.121 47.0455V22.8072C112.121 22.5112 111.858 22.2481 111.562 22.2481ZM108.108 11.132C105.576 11.132 103.57 13.1382 103.57 15.6705C103.57 18.2029 105.576 20.2091 108.108 20.2091C110.575 20.2091 112.581 18.2029 112.581 15.6705C112.581 13.1382 110.575 11.132 108.108 11.132ZM162.34 10.3098H155.401C155.105 10.3098 154.842 10.5729 154.842 10.8689V24.32H143.956V10.8689C143.956 10.5729 143.693 10.3098 143.397 10.3098H136.392C136.096 10.3098 135.833 10.5729 135.833 10.8689V47.4072C135.833 47.7032 136.129 47.9663 136.392 47.9663H143.397C143.693 47.9663 143.956 47.7032 143.956 47.4072V31.7855H154.842L154.776 47.4072C154.776 47.7032 155.039 47.9663 155.335 47.9663H162.34C162.636 47.9663 162.899 47.7032 162.899 47.4072V10.8689C162.899 10.5729 162.636 10.3098 162.34 10.3098ZM100.281 26.4906V45.3682C100.281 45.4997 100.248 45.73 100.084 45.7957C100.084 45.7957 95.9728 48.7227 89.1979 48.7227C81.0089 48.7227 71.307 46.1575 71.307 29.2532C71.307 12.3489 79.792 8.86278 88.0797 8.89567C95.2493 8.89567 98.1434 10.5072 98.6038 10.8032C98.7354 10.9676 98.8011 11.0991 98.8011 11.2636L97.4198 17.1176C97.4198 17.4136 97.1239 17.7754 96.7621 17.6767C95.5781 17.3149 93.8022 16.5914 89.6255 16.5914C84.791 16.5914 79.5947 17.9727 79.5947 28.8585C79.5947 39.7444 84.5279 41.027 88.0797 41.027C91.1054 41.027 92.1907 40.6652 92.1907 40.6652V33.1011H87.3562C86.9944 33.1011 86.7313 32.838 86.7313 32.542V26.4906C86.7313 26.1946 86.9944 25.9315 87.3562 25.9315H99.6562C100.018 25.9315 100.281 26.1946 100.281 26.4906Z" fill="#868686"/>
</svg>
