<svg width="117" height="41" viewBox="0 0 117 41" fill="none" xmlns="http://www.w3.org/2000/svg">
<path d="M6.71545 29.0313C7.20763 30.3375 7.88905 31.4543 8.75983 32.3818C9.63061 33.3093 10.6622 34.0192 11.8547 34.5113C13.0473 35.0035 14.3439 35.2496 15.7447 35.2496C17.1076 35.2496 18.3853 34.994 19.5779 34.4828C20.7704 33.9717 21.8115 33.2524 22.7011 32.325C23.5907 31.3974 24.2817 30.2901 24.7739 29.0029C25.2661 27.7157 25.5121 26.2773 25.5121 24.6871V0.154999H31.4747V39.906H25.5689V36.2148C24.2439 37.6155 22.6821 38.6945 20.8839 39.4518C19.0855 40.2089 17.1455 40.5875 15.0632 40.5875C12.9431 40.5875 10.9651 40.2183 9.12887 39.4801C7.29282 38.7419 5.70268 37.6914 4.35881 36.3284C3.01495 34.9655 1.95481 33.3283 1.17877 31.4164C0.402606 29.5046 0.0145874 27.3751 0.0145874 25.0278V0.154999H5.97723V24.6871C5.97723 26.2773 6.22326 27.7252 6.71545 29.0313Z" fill="#868686"/>
<path d="M41.7527 0.154999V14.6357C43.0777 13.3107 44.6111 12.2602 46.3525 11.4841C48.094 10.7079 49.9869 10.3199 52.0312 10.3199C54.1513 10.3199 56.1387 10.7173 57.9938 11.5123C59.8489 12.3073 61.4577 13.3863 62.8207 14.7493C64.1837 16.1123 65.2626 17.7211 66.0577 19.5762C66.8527 21.4313 67.2501 23.3999 67.2501 25.4821C67.2501 27.5642 66.8527 29.5234 66.0577 31.3595C65.2626 33.1956 64.1837 34.7952 62.8207 36.1579C61.4577 37.5209 59.8489 38.5999 57.9938 39.3949C56.1387 40.1899 54.1512 40.5873 52.0312 40.5873C49.9868 40.5873 48.0845 40.1993 46.3241 39.4231C44.5637 38.6471 43.0209 37.5965 41.6959 36.2715V39.9059H36.0173V0.154999H41.7527ZM42.4057 29.4004C42.9168 30.6119 43.6267 31.672 44.5353 32.5806C45.4439 33.4892 46.5039 34.2085 47.7154 34.7385C48.9269 35.2685 50.233 35.5335 51.6337 35.5335C52.9967 35.5335 54.2838 35.2685 55.4952 34.7385C56.7066 34.2085 57.7571 33.4893 58.647 32.5806C59.5366 31.6721 60.2464 30.6119 60.7764 29.4004C61.3064 28.189 61.5714 26.8829 61.5714 25.4821C61.5714 24.0813 61.3064 22.7657 60.7764 21.5353C60.2464 20.3049 59.5366 19.2355 58.647 18.3269C57.7572 17.4184 56.7068 16.7085 55.4952 16.1975C54.2837 15.6864 52.9966 15.4307 51.6337 15.4307C50.2709 15.4307 48.9837 15.6863 47.7723 16.1975C46.5609 16.7086 45.5008 17.4184 44.5921 18.3269C43.6836 19.2355 42.9643 20.3049 42.4343 21.5353C41.9043 22.7657 41.6393 24.0813 41.6393 25.4821C41.6391 26.8829 41.8947 28.189 42.4057 29.4004Z" fill="#868686"/>
<path d="M70.4863 19.633C71.2433 17.8158 72.2846 16.2163 73.6095 14.8345C74.9344 13.4527 76.5057 12.3643 78.3229 11.5693C80.1401 10.7743 82.1087 10.3768 84.2288 10.3768C86.311 10.3768 88.2417 10.7554 90.0211 11.5125C91.8004 12.2697 93.3336 13.3203 94.6208 14.6643C95.908 16.0081 96.9113 17.5983 97.6305 19.4343C98.3498 21.2705 98.7094 23.2675 98.7094 25.4255V27.2995H75.1429C75.3322 28.4731 75.7108 29.5615 76.2786 30.5646C76.8466 31.5678 77.5563 32.4386 78.4081 33.1768C79.2599 33.9151 80.2253 34.4925 81.3043 34.9088C82.3833 35.3252 83.5284 35.5336 84.7399 35.5336C88.1851 35.5336 90.9677 34.1138 93.0877 31.2744L97.2331 34.3409C95.7945 36.2717 94.0153 37.786 91.8953 38.8839C89.7751 39.9817 87.3901 40.5307 84.74 40.5307C82.5821 40.5307 80.5662 40.152 78.6922 39.3949C76.8182 38.6378 75.1904 37.5777 73.8085 36.2147C72.4267 34.8518 71.3383 33.2523 70.5433 31.4163C69.7483 29.5802 69.3507 27.5831 69.3507 25.4252C69.3505 23.381 69.7292 21.4502 70.4863 19.633ZM78.4649 17.3898C76.8559 18.7338 75.7865 20.5226 75.2564 22.7562H92.9173C92.4251 20.5226 91.3745 18.7338 89.7655 17.3898C88.1566 16.0459 86.2731 15.374 84.1153 15.374C81.9573 15.374 80.0739 16.0459 78.4649 17.3898Z" fill="#868686"/>
<path d="M109.442 18.0429C108.231 19.368 107.625 21.1662 107.625 23.4377V39.9062H101.889V10.9446H107.568V14.5222C108.287 13.3486 109.224 12.4211 110.379 11.7396C111.534 11.0581 112.906 10.7173 114.496 10.7173H116.484V16.0553H114.099C112.206 16.0555 110.654 16.7179 109.442 18.0429Z" fill="#868686"/>
</svg>
